<svg xmlns="http://www.w3.org/2000/svg" id="Layer_2" data-name="Layer 2" viewBox="0 0 350 48.37"><defs><style> .cls-1 { fill: #1c67a1; } .cls-2 { fill: #30a2d6; } </style></defs><g id="Layer_1-2" data-name="Layer 1"><g id="aerones_logo_RGB" data-name="aerones logo RGB"><g><g><path class="cls-1" d="M195.65,7.42c-1.88-1.93-4.12-3.57-6.68-4.82-.24-.12-.49-.23-.73-.34l-10.3,21.11,10.79-7.78c8.88,8.58,6.97,25.82-13.53,32.56,0,0,0,0,0,0,10.01,1.34,20.19-3.74,24.86-13.32,4.59-9.4,2.5-20.33-4.41-27.41Z"></path><path class="cls-2" d="M159.69,40.94c1.88,1.93,4.12,3.57,6.68,4.82.24.12.49.23.73.34l10.3-21.11-10.79,7.78c-8.88-8.58-6.97-25.82,13.53-32.56,0,0,0,0,0,0-10.01-1.34-20.19,3.74-24.86,13.32-4.59,9.4-2.5,20.33,4.41,27.41Z"></path></g><path class="cls-1" d="M0,46.02L20.26,2.35h9.7l20.27,43.67h-12.78l-2.81-6.69H15.11l-2.74,6.69H0ZM18.86,30.24h12.04l-5.82-13.98h-.4l-5.82,13.98Z"></path><path class="cls-1" d="M88.65,28.5h-20.7v7.69h27.09v9.83h-38.79V2.35h37.32v9.83h-25.62v6.89h20.7v9.43Z"></path><path class="cls-1" d="M103.24,46.02V2.35h24.34c6.62,0,10.77,1.94,13.58,4.88,2.34,2.47,3.75,5.68,3.75,9.3,0,5.35-3.08,9.56-8.03,12.11l10.03,17.39h-13.24l-8.36-15.38h-10.37v15.38h-11.7ZM114.94,11.84v9.3h13.31c2.74,0,4.95-1.67,4.95-4.68,0-1.2-.47-2.41-1.27-3.28-1.07-1.14-2.47-1.34-3.68-1.34h-13.31Z"></path><path class="cls-1" d="M251.44,2.35v43.67h-9.9l-19.26-23.74h-.07v23.74h-11.77V2.35h9.83l19.33,23.81h.07V2.35h11.77Z"></path><path class="cls-1" d="M294.96,28.5h-20.7v7.69h27.09v9.83h-38.79V2.35h37.32v9.83h-25.62v6.89h20.7v9.43Z"></path><path class="cls-1" d="M340.97,14.52c-2.88-1.67-8.36-4.28-14.78-4.28-3.54,0-6.62,1.6-6.62,4.41,0,3.08,5.02,3.34,9.76,3.81,8.02.53,20.67,1.6,20.67,13.51,0,11.04-9.1,15.38-20.07,15.38s-18.93-4.21-24.21-8.09l6.29-7.96c3.01,2.14,9.97,6.89,17.72,6.89,5.42,0,8.56-2.34,8.56-5.22,0-3.14-3.75-3.75-9.36-4.21-9.76-.8-21.07-1.81-21.07-13.51,0-10.83,10.1-14.25,18.59-14.25,8.96,0,16.92,3.01,20.87,5.35l-6.35,8.16Z"></path></g></g></g></svg>